<?xml version="1.0" encoding="UTF-8"?>
<svg xmlns="http://www.w3.org/2000/svg" viewBox="0 0 1024 512" role="img" aria-label="Prompt Clash">
  <title>Prompt Clash</title>
  <desc>Axolotl mascot with PROMPT CLASH pixel wordmark</desc>
  <defs>
    <style type="text/css"><![CDATA[
      @import url('https://fonts.googleapis.com/css2?family=Silkscreen:wght@700&display=swap');
      .wordmark {
        font-family: 'Silkscreen', monospace;
        font-weight: 700;
        font-size: 92px;
        letter-spacing: 0.04em;
        fill: currentColor;
      }
      .tagline {
        font-family: 'JetBrains Mono', ui-monospace, monospace;
        font-size: 22px;
        letter-spacing: 0.22em;
        fill: #aed24a;
        text-transform: uppercase;
      }
    ]]></style>
  </defs>

  <!-- AXOLOTL MARK, left side, scaled into 0..512 region -->
  <g shape-rendering="crispEdges">
    <!-- Gills (top), lime accent -->
    <g fill="#aed24a">
      <rect x="64"  y="64"  width="32" height="32"/>
      <rect x="96"  y="32"  width="32" height="80"/>
      <rect x="128" y="64"  width="32" height="32"/>
      <rect x="208" y="16"  width="32" height="96"/>
      <rect x="240" y="0"   width="32" height="112"/>
      <rect x="272" y="16"  width="32" height="96"/>
      <rect x="352" y="64"  width="32" height="32"/>
      <rect x="384" y="32"  width="32" height="80"/>
      <rect x="416" y="64"  width="32" height="32"/>
    </g>
    <!-- Body, mor -->
    <g fill="#7c4dff">
      <rect x="96"  y="112" width="320" height="32"/>
      <rect x="64"  y="144" width="384" height="32"/>
      <rect x="32"  y="176" width="448" height="32"/>
      <rect x="32"  y="208" width="448" height="32"/>
      <rect x="32"  y="240" width="448" height="32"/>
      <rect x="32"  y="272" width="448" height="32"/>
      <rect x="32"  y="304" width="448" height="32"/>
      <rect x="32"  y="336" width="448" height="32"/>
      <rect x="64"  y="368" width="384" height="32"/>
      <rect x="96"  y="400" width="64"  height="32"/>
      <rect x="208" y="400" width="96"  height="32"/>
      <rect x="352" y="400" width="64"  height="32"/>
      <rect x="96"  y="432" width="64"  height="48"/>
      <rect x="352" y="432" width="64"  height="48"/>
    </g>
    <!-- Belly, bone -->
    <g fill="#f5f5f8">
      <rect x="208" y="240" width="96"  height="32"/>
      <rect x="176" y="272" width="160" height="32"/>
      <rect x="144" y="304" width="224" height="32"/>
      <rect x="144" y="336" width="224" height="32"/>
      <rect x="176" y="368" width="160" height="32"/>
    </g>
    <!-- Eyes -->
    <g fill="#ffffff">
      <rect x="96"  y="208" width="64"  height="64"/>
      <rect x="352" y="208" width="64"  height="64"/>
    </g>
    <g fill="#14121a">
      <rect x="128" y="224" width="32"  height="48"/>
      <rect x="352" y="224" width="32"  height="48"/>
    </g>
    <g fill="#ffffff">
      <rect x="128" y="224" width="16"  height="16"/>
      <rect x="352" y="224" width="16"  height="16"/>
    </g>
    <!-- Mouth -->
    <rect x="240" y="336" width="32" height="16" fill="#5a35cc"/>
  </g>

  <!-- WORDMARK, right side, ~544..976 range -->
  <text x="544" y="240" class="wordmark" fill="currentColor">PROMPT</text>
  <text x="544" y="356" class="wordmark" fill="#7c4dff">CLASH</text>
  <text x="544" y="404" class="tagline">1v1 AI VS</text>
</svg>
